# xmcd
#
# Track frame offsets:
#	150
#	13496
#	35915
#	45215
#	63961
#	78430
#	89975
#	114346
#	126562
#	142904
#	166224
#	187296
#	199949
#	218396
#	239017
#	257240
#	274187
#	284706
#
# Disc length: 4105 seconds
#
# Revision: 3
# Processed by: cddbd v1.5.2PL0 Copyright (c) Steve Scherf et al.
# Submitted via: audiograbber 1.83.01
#
DISCID=1e100712
DTITLE=Viva La Salsa - Viva La Salsa (Número Cuatro - CD 2)
DYEAR=2007
DGENRE=Salsa
TTITLE0=Celia Cruz - Rumba para parejas
TTITLE1=Aramis Galindo - Buenos dias América
TTITLE2=Enrique Velasques - Guantanamera
TTITLE3=David Alvarez and Juego De Manos - Juana la loca
TTITLE4=Los Arricos - Tic tic tac
TTITLE5=Alain Daniel - Esa morena
TTITLE6=Antonela Cuellar - Dime quien
TTITLE7=Ritmo Latino - Patricia
TTITLE8=Capoeira Family - Lé zum zum zum capeira
TTITLE9=Bakuleye - Timbanton
TTITLE10=Aguerè La Banda - Confia en mi
TTITLE11=Orchestre Barreto - Son retozon
TTITLE12=DJ Tooloon Feat. Juan Del Guro - Baila la rica rumba
TTITLE13=Son De Cuba - Zula mueve tu perro
TTITLE14=Gloria Matancera - Encuentro entre soneros
TTITLE15=Doris Lavin - Yo bailo de todo
TTITLE16=Rio Combo - (Mucho mambo) Sway
TTITLE17=Chispa y Los Cómplices - Cantado cha cha cha (Se fue a Nueva York)
EXTD=YEAR: 2007
EXTT0=
EXTT1=
EXTT2=
EXTT3=
EXTT4=
EXTT5=
EXTT6=
EXTT7=
EXTT8=
EXTT9=
EXTT10=
EXTT11=
EXTT12=
EXTT13=
EXTT14=
EXTT15=
EXTT16=
EXTT17=
PLAYORDER=
